<svg width="300" height="300" viewBox="0 0 300 300" fill="none" xmlns="http://www.w3.org/2000/svg">
<circle cx="150" cy="150" r="129" fill="#030818" stroke="#1C3AA6" stroke-width="8"/>
<g filter="url(#filter0_f_1_2)">
<mask id="path-2-outside-1_1_2" maskUnits="userSpaceOnUse" x="17" y="16" width="225" height="267" fill="black">
<rect fill="white" x="17" y="16" width="225" height="267"/>
<path d="M230.238 245.848C214.865 258.717 196.623 267.7 177.05 272.038C157.477 276.376 137.148 275.943 117.777 270.775C98.4067 265.607 80.5634 255.856 65.7529 242.344C50.9423 228.832 39.5991 211.956 32.6801 193.14C25.7612 174.324 23.4695 154.119 25.9986 134.231C28.5277 114.343 35.8032 95.3555 47.2114 78.8698C58.6196 62.3841 73.8256 48.8843 91.5466 39.5093C109.268 30.1343 128.984 25.1592 149.031 25.0038L150 150L230.238 245.848Z"/>
</mask>
<path d="M230.238 245.848C214.865 258.717 196.623 267.7 177.05 272.038C157.477 276.376 137.148 275.943 117.777 270.775C98.4067 265.607 80.5634 255.856 65.7529 242.344C50.9423 228.832 39.5991 211.956 32.6801 193.14C25.7612 174.324 23.4695 154.119 25.9986 134.231C28.5277 114.343 35.8032 95.3555 47.2114 78.8698C58.6196 62.3841 73.8256 48.8843 91.5466 39.5093C109.268 30.1343 128.984 25.1592 149.031 25.0038L150 150L230.238 245.848Z" fill="#030818"/>
<path d="M230.238 245.848C214.865 258.717 196.623 267.7 177.05 272.038C157.477 276.376 137.148 275.943 117.777 270.775C98.4067 265.607 80.5634 255.856 65.7529 242.344C50.9423 228.832 39.5991 211.956 32.6801 193.14C25.7612 174.324 23.4695 154.119 25.9986 134.231C28.5277 114.343 35.8032 95.3555 47.2114 78.8698C58.6196 62.3841 73.8256 48.8843 91.5466 39.5093C109.268 30.1343 128.984 25.1592 149.031 25.0038L150 150L230.238 245.848Z" stroke="#28E7DB" stroke-width="16" mask="url(#path-2-outside-1_1_2)"/>
</g>
<circle cx="150" cy="150" r="125" fill="#030818"/>
<path d="M84 225.4C80 222.867 77.8 218.933 77.4 213.6C77 208.4 77.6667 202.533 79.4 196C81.2667 189.467 83.8 182.667 87 175.6C90.3333 168.533 93.8 161.933 97.4 155.8C101 149.533 104.4 144.067 107.6 139.4C110.933 134.733 113.467 131.6 115.2 130C115.2 129.467 115.2 128.467 115.2 127C115.2 125.533 115.2 124.6 115.2 124.2C114.933 122.867 114.533 120.6 114 117.4C113.6 114.2 113.067 110.8 112.4 107.2C111.867 103.6 111.267 100.267 110.6 97.2C110.067 94 109.667 91.7333 109.4 90.4C108.867 89.3333 108.067 88.5333 107 88C106.067 87.3333 105 87.2667 103.8 87.8L58.8 104.4C57.6 104.933 56.4667 104.867 55.4 104.2C54.4667 103.533 53.7333 102.667 53.2 101.6C52.8 100.533 52.8 99.4667 53.2 98.4C53.6 97.3333 54.4667 96.5333 55.8 96L148.8 65.2H157.2C158 67.3333 158.2 68.9333 157.8 70C157.533 71.0667 156.933 71.8 156 72.2C155.067 72.6 153.933 72.8667 152.6 73C151.4 73.1333 150.133 73.3333 148.8 73.6C147.733 74 145.867 74.6 143.2 75.4C140.533 76.0667 137.667 76.8667 134.6 77.8C131.533 78.7333 128.667 79.6 126 80.4C123.467 81.2 121.667 81.7333 120.6 82C120.067 88.1333 120.267 94.3333 121.2 100.6C122.133 106.867 123.867 112.867 126.4 118.6L154.4 104.4C155.867 103.6 157.333 103.533 158.8 104.2C160.267 104.733 161.333 105.533 162 106.6C162.8 107.667 163.067 108.867 162.8 110.2C162.533 111.4 161.6 112.267 160 112.8C157.467 113.733 154.467 114.733 151 115.8C147.667 116.867 144.333 118.133 141 119.6C137.667 120.933 134.6 122.667 131.8 124.8C129.133 126.8 127.333 129.4 126.4 132.6C126 133.667 125.6 136.2 125.2 140.2C124.933 144.2 124.533 149 124 154.6C123.6 160.067 122.933 166.133 122 172.8C121.2 179.333 120.133 185.733 118.8 192C117.6 198.4 116 204.333 114 209.8C112.133 215.4 109.733 219.867 106.8 223.2C104 226.667 100.733 228.667 97 229.2C93.2667 229.867 88.9333 228.6 84 225.4ZM89.6 216.8C91.0667 219.867 92.7333 220.933 94.6 220C96.4667 219.067 98.3333 217 100.2 213.8C102.067 210.733 103.867 206.8 105.6 202C107.333 197.333 108.867 192.733 110.2 188.2C111.533 183.667 112.667 179.6 113.6 176C114.533 172.4 115.067 170.067 115.2 169C115.2 168.067 115.2 166.333 115.2 163.8V146.6C115.2 144.067 115.2 142.2 115.2 141C110.533 145.8 106.4 151.267 102.8 157.4C99.3333 163.4 96.4667 169.733 94.2 176.4C92.0667 183.067 90.5333 189.867 89.6 196.8C88.6667 203.733 88.6667 210.4 89.6 216.8ZM194.939 200.4V152.6C194.139 153.267 192.872 154.333 191.139 155.8C189.539 157.133 187.672 158.6 185.539 160.2C183.406 161.667 181.206 162.8 178.939 163.6C176.672 164.4 174.539 164.533 172.539 164C171.472 163.6 170.672 163.067 170.139 162.4C169.739 161.733 169.472 161 169.339 160.2C169.206 159.4 169.139 158.6 169.139 157.8C169.139 156.867 169.272 156.067 169.539 155.4L199.139 138.4V90.6C199.139 89.6667 199.739 89 200.939 88.6C202.139 88.0667 203.406 87.8 204.739 87.8C206.206 87.8 207.539 88.0667 208.739 88.6C209.939 89 210.539 89.6667 210.539 90.6V130C215.072 127.733 219.472 124.8 223.739 121.2C228.139 117.6 231.939 113.933 235.139 110.2C238.339 106.333 240.606 102.6 241.939 99C243.406 95.2667 243.406 92.0667 241.939 89.4C240.606 86.6 237.539 84.5333 232.739 83.2C227.939 81.8667 220.939 81.5333 211.739 82.2C209.739 82.4667 207.206 83.0667 204.139 84C201.206 84.9333 197.939 86.1333 194.339 87.6C190.739 88.9333 187.072 90.4 183.339 92C179.739 93.4667 176.206 94.8 172.739 96C169.406 97.2 166.472 98.1333 163.939 98.8C161.406 99.3333 159.539 99.4667 158.339 99.2C158.606 97.2 159.339 95.5333 160.539 94.2C161.739 92.7333 163.139 91.4 164.739 90.2C166.472 89 168.206 88 169.939 87.2C171.806 86.2667 173.606 85.5333 175.339 85C182.006 82.7333 187.672 80.8667 192.339 79.4C197.139 77.9333 201.806 76.8 206.339 76C210.872 75.2 215.739 74.8667 220.939 75C226.139 75 232.472 75.4667 239.939 76.4C245.939 78 250.072 80.1333 252.339 82.8C254.739 85.3333 255.806 88.2 255.539 91.4C255.272 94.6 253.939 98.0667 251.539 101.8C249.139 105.4 246.206 109 242.739 112.6C239.272 116.2 235.606 119.733 231.739 123.2C227.872 126.667 224.272 129.8 220.939 132.6C217.606 135.4 214.806 137.8 212.539 139.8C210.272 141.8 209.072 143.267 208.939 144.2L203.339 194.6L202.339 196C201.806 196.667 201.139 197.4 200.339 198.2C199.539 199 198.606 199.667 197.539 200.2C196.606 200.733 195.739 200.8 194.939 200.4Z" fill="#D3EAF1"/>
<defs>
<filter id="filter0_f_1_2" x="6.99997" y="6.94198" width="244.507" height="286.058" filterUnits="userSpaceOnUse" color-interpolation-filters="sRGB">
<feFlood flood-opacity="0" result="BackgroundImageFix"/>
<feBlend mode="normal" in="SourceGraphic" in2="BackgroundImageFix" result="shape"/>
<feGaussianBlur stdDeviation="5" result="effect1_foregroundBlur_1_2"/>
</filter>
</defs>
</svg>
